HIERARCHY
ROOT hip
{
	OFFSET 0.000000 0.000000 0.000000 
	CHANNELS 6 Xposition Yposition Zposition Xrotation Zrotation Yrotation
	JOINT abdomen
	{
		OFFSET 0.000000 3.402643 0.000000 
		CHANNELS 3 Xrotation Zrotation Yrotation
		JOINT chest
		{
			OFFSET 0.000000 8.438565 -0.680529 
			CHANNELS 3 Xrotation Zrotation Yrotation
			JOINT neck
			{
				OFFSET 0.000000 10.207942 -0.272212 
				CHANNELS 3 Xrotation Zrotation Yrotation
				JOINT head
				{
					OFFSET 0.000000 3.130431 0.000000 
					CHANNELS 3 Xrotation Zrotation Yrotation
					End Site
					{
						OFFSET 0.000000 3.130435 0.000000 
					}
				}
			}
			JOINT lCollar
			{
				OFFSET 3.470700 6.669187 -0.816635 
				CHANNELS 3 Yrotation Zrotation Xrotation
				JOINT lShldr
				{
					OFFSET 3.198488 0.000000 0.000000 
					CHANNELS 3 Zrotation Yrotation Xrotation
					JOINT lForeArm
					{
						OFFSET 10.139888 0.000000 0.000000 
						CHANNELS 3 Yrotation Zrotation Xrotation
						JOINT lHand
						{
							OFFSET 8.370511 0.000000 0.000000 
							CHANNELS 3 Zrotation Yrotation Xrotation
							End Site
							{
								OFFSET 4.083176 0.000000 0.000000 
							}
						}
					}
				}
			}
			JOINT rCollar
			{
				OFFSET -3.470700 6.669187 -0.816635 
				CHANNELS 3 Yrotation Zrotation Xrotation
				JOINT rShldr
				{
					OFFSET -3.198488 0.000000 0.000000 
					CHANNELS 3 Zrotation Yrotation Xrotation
					JOINT rForeArm
					{
						OFFSET -10.139888 0.000000 0.000000 
						CHANNELS 3 Yrotation Zrotation Xrotation
						JOINT rHand
						{
							OFFSET -8.370511 0.000000 0.000000 
							CHANNELS 3 Zrotation Yrotation Xrotation
							End Site
							{
								OFFSET -4.083176 0.000000 0.000000 
							}
						}
					}
				}
			}
		}
	}
	JOINT lThigh
	{
		OFFSET 5.308129 -1.633274 1.361059 
		CHANNELS 3 Xrotation Zrotation Yrotation
		JOINT lShin
		{
			OFFSET -2.041588 -20.007561 0.000000 
			CHANNELS 3 Xrotation Zrotation Yrotation
			JOINT lFoot
			{
				OFFSET 0.000000 -19.190928 -1.224953 
				CHANNELS 3 Xrotation Yrotation Zrotation
				End Site
				{
					OFFSET 0.000000 -2.449906 4.627600 
				}
			}
		}
	}
	JOINT rThigh
	{
		OFFSET -5.308129 -1.633274 1.361059 
		CHANNELS 3 Xrotation Zrotation Yrotation
		JOINT rShin
		{
			OFFSET 2.041588 -20.007561 0.000000 
			CHANNELS 3 Xrotation Zrotation Yrotation
			JOINT rFoot
			{
				OFFSET 0.000000 -19.190928 -1.224953 
				CHANNELS 3 Xrotation Yrotation Zrotation
				End Site
				{
					OFFSET 0.000000 -2.449906 4.627600 
				}
			}
		}
	}
}
MOTION
Frames: 13
Frame Time: 0.033333
-0.324524 44.855469 -0.304501 15.998574 -2.626707 -10.998361 0.000000 0.000000 0.000000 3.708814 0.155277 6.396513 -7.848565 5.107320 0.363371 -13.593120 0.356442 9.433835 7.936117 29.490677 20.267778 -97.643929 -9.079672 2.256365 -30.742910 -12.191346 64.938087 12.042571 -0.975597 -61.461990 -11.761538 -22.324938 19.596985 68.450203 15.324520 68.506668 53.095921 -24.698875 41.945694 23.949923 7.884202 -79.021698 -39.373802 16.903214 18.137934 73.900658 18.038183 0.985346 13.088844 -18.517406 -2.372450 -37.663342 -1.523353 2.233635 65.264275 -2.762016 4.454619 5.690976 13.672559 64.979652 
-0.619566 47.265659 -0.620352 17.651308 -3.158616 -11.453454 0.000000 0.000000 0.000000 0.018716 1.629058 6.809429 -4.310509 4.511647 0.323572 -10.965259 0.077303 8.320331 8.309812 29.469629 20.071875 -96.323929 -6.853923 1.641269 -34.381645 -14.085755 68.144257 6.187202 -1.919469 -60.959213 -13.711587 -22.293354 18.797153 67.526169 15.775459 67.888618 53.472454 -20.935410 38.606003 25.453617 6.256856 -79.235130 -32.885921 17.475399 19.646091 61.616333 15.687805 0.835663 21.151995 -20.479158 -3.195964 -32.824112 -0.274054 2.355942 55.525345 -1.254218 3.899871 14.086756 9.084835 55.527596 
-0.844831 50.244919 -0.972049 19.329323 -3.754971 -11.235803 0.000000 0.000000 0.000000 -3.482048 3.264845 7.238686 -1.313768 4.413997 0.313828 -8.628322 -1.827932 5.354126 7.949119 28.737146 20.362011 -95.448418 -5.888874 1.207183 -36.932346 -14.790990 69.620193 -4.881196 -4.668251 -59.525440 -14.987573 -20.545599 18.749380 64.453262 15.680518 66.121956 52.431538 -17.314390 33.610111 24.041744 6.057820 -79.440300 -26.050016 16.214670 20.408735 47.192291 14.216365 1.120682 28.270405 -20.021551 1.540192 -27.632877 1.357384 2.572136 43.868496 -1.591134 2.670774 26.062176 6.506329 53.518517 
-0.876067 52.809010 -0.986068 17.942360 -2.737783 -10.373628 0.000000 0.000000 0.000000 -4.076204 2.781110 7.127770 1.529339 3.671841 0.244890 -9.612254 -1.325653 3.496964 7.922144 25.958021 20.766752 -94.391388 -7.326971 0.628835 -35.279606 -13.177907 70.792564 -9.989864 -7.609323 -57.898296 -15.039028 -18.914251 19.187807 60.606754 13.492292 64.307693 54.448738 -16.978901 33.075272 24.113726 5.628826 -79.487076 -17.800070 12.369217 20.165197 36.158360 12.861830 1.422124 34.868950 -23.119291 -7.365271 -19.398657 -0.546796 1.637687 30.166927 -0.551693 1.577209 34.727726 3.616885 48.838474 
-0.820660 55.968212 -0.823412 19.268951 -2.178282 -10.701503 0.000000 0.000000 0.000000 -5.884827 2.616488 7.107327 2.096038 3.740201 0.244895 -9.145781 -1.374433 3.467672 8.108615 24.162474 20.936228 -92.844322 -7.155452 -0.163940 -35.701916 -13.222286 71.518936 -10.448592 -8.403659 -57.646675 -14.537274 -17.929684 19.642937 59.246552 13.679372 63.500618 53.899799 -16.724260 33.196613 25.377054 5.030476 -79.497948 -16.264681 12.550662 20.423813 26.536869 10.036262 1.298169 42.308895 -24.226151 -6.651440 -18.247536 -1.142490 1.425809 21.476627 -0.117185 0.843725 39.927143 3.049938 48.219433 
-0.775095 58.357185 -0.772289 19.026106 -1.869198 -11.021794 0.000000 0.000000 0.000000 -5.225934 2.287394 7.027164 1.911260 3.769494 0.254641 -9.133643 -1.227806 3.770339 8.107034 23.296976 21.055029 -92.464645 -7.904027 -0.374919 -35.553253 -12.565337 70.604942 -10.606996 -8.705545 -57.575359 -13.885785 -17.751257 19.913538 59.037281 15.016885 63.130836 52.742527 -16.789305 33.023766 26.717485 3.699085 -79.561783 -15.984123 12.798978 20.549114 24.124489 9.186754 1.268903 42.526600 -25.288010 -8.687836 -18.248924 -1.445246 1.348449 19.381443 0.078190 0.725587 39.361412 2.297889 47.823174 
-0.780841 59.913921 -0.722426 17.675817 -1.905681 -11.305487 0.000000 0.000000 0.000000 -3.210216 1.948530 6.937866 1.832918 3.720666 0.254639 -9.010390 -0.886286 4.199622 8.029542 23.473183 21.065058 -92.847839 -9.052898 -0.178247 -35.229797 -11.870933 70.047585 -10.909691 -8.646905 -57.515594 -13.600081 -18.155506 19.899679 59.418453 16.729124 63.040588 52.218803 -16.990427 33.379753 27.820278 2.423669 -79.632431 -16.401836 13.419999 20.734289 26.967335 9.909590 1.262905 40.309784 -26.692919 -9.024042 -18.195177 -1.366705 1.334415 21.037521 0.006114 0.857311 36.977150 2.888137 46.644318 
-0.811691 60.718479 -0.664522 16.703074 -1.990635 -11.481838 0.000000 0.000000 0.000000 -1.808833 1.687067 6.858521 2.163037 3.564423 0.235136 -8.820780 -0.652287 4.492452 7.943492 23.901386 21.049044 -93.144363 -10.104658 -0.036271 -35.143917 -11.484669 70.078415 -11.216805 -8.492984 -57.479580 -13.586203 -18.522200 19.804964 59.677788 17.899643 62.973328 52.415730 -17.316896 33.552246 27.982000 1.907706 -79.659523 -17.866652 14.191662 20.843239 31.517632 11.412912 1.322629 39.203625 -28.166897 -8.289965 -18.480881 -1.269269 1.384782 22.984795 -0.111278 1.019310 35.864792 4.042002 45.127529 
-0.830778 60.834030 -0.611835 16.522858 -1.921757 -11.754772 0.000000 0.000000 0.000000 -1.445364 1.551453 6.818919 2.600729 3.271459 0.225358 -8.691133 -0.574122 4.834133 8.129303 24.078485 20.933750 -93.121658 -10.809336 -0.050880 -35.109917 -11.310268 69.794495 -11.078629 -8.413289 -57.552753 -13.460386 -18.846678 19.769274 59.879803 18.627821 62.941513 52.699917 -17.581280 33.209797 27.548058 1.725903 -79.676590 -20.009829 14.863465 20.802502 35.737534 12.906757 1.440685 38.985447 -28.863157 -7.699605 -19.449986 -1.327587 1.417884 24.368132 -0.189561 1.105726 36.139523 4.740015 43.070393 
-0.823240 60.177914 -0.532379 16.576797 -1.727218 -12.271445 0.000000 0.000000 0.000000 -1.443044 1.570846 6.819186 2.831317 2.792954 0.185802 -8.634421 -0.524926 5.488498 8.728321 23.954653 20.689732 -92.895271 -11.047006 -0.159428 -35.081200 -11.249157 69.157852 -10.658993 -8.459516 -57.678120 -12.977219 -19.183691 19.862177 60.079895 19.222338 62.950043 52.847527 -17.728266 32.962975 27.306126 1.600186 -79.674789 -21.693943 15.382720 20.751831 38.791988 13.895252 1.531823 38.867828 -28.661871 -6.980850 -20.441219 -1.552222 1.392376 25.380816 -0.189868 1.202439 37.230553 4.817238 40.145233 
-0.788393 58.847492 -0.403101 16.359926 -1.504074 -12.895336 0.000000 0.000000 0.000000 -1.234113 1.677405 6.848759 2.807519 2.158198 0.127231 -8.758518 -0.427045 6.357536 9.411422 23.653896 20.433790 -92.575912 -10.942971 -0.323462 -35.219082 -11.281293 68.881989 -10.319875 -8.507825 -57.768414 -12.393773 -19.432901 20.012203 60.198044 19.774469 62.910202 52.904747 -17.875280 33.247044 27.462790 1.582609 -79.671768 -22.408937 15.620321 20.763222 40.766945 14.449422 1.525658 38.315136 -28.396011 -6.387223 -21.055323 -1.874490 1.317278 26.489223 -0.336377 1.281009 38.547829 4.994454 36.608334 
-0.719323 56.762756 -0.257311 16.161888 -1.235322 -13.333238 0.000000 0.000000 0.000000 -1.103602 1.861513 6.878650 2.589928 1.494139 0.078353 -9.133150 -0.416799 6.992357 9.634076 23.290979 20.396208 -92.225807 -10.681481 -0.507555 -35.636227 -11.348797 69.463150 -10.160550 -8.345041 -57.820824 -12.168818 -19.381302 20.108767 60.134277 19.983927 62.827541 52.853680 -18.167576 33.580360 27.444427 1.649969 -79.677452 -23.222425 15.468522 20.573101 42.805408 14.841458 1.520073 36.753742 -28.674036 -7.757475 -22.137857 -2.207012 1.259956 29.187860 -0.761677 1.453405 39.057262 5.923171 34.204235 
-0.606666 53.898327 -0.184667 16.218027 -0.807418 -13.419364 0.000000 0.000000 0.000000 -1.022538 1.958346 6.908588 1.953907 0.917968 0.048978 -9.866129 -0.639425 7.217216 9.309067 22.968624 20.587843 -92.066193 -10.593958 -0.588418 -35.967098 -11.198111 69.889320 -9.891941 -8.056612 -57.914001 -12.333195 -19.090261 20.116451 60.020512 19.883043 62.787109 52.535606 -18.643705 33.078617 26.796768 1.490993 -79.684822 -25.697495 14.788053 19.965918 47.516788 15.660110 1.429823 32.217323 -29.092402 -12.519307 -25.093103 -2.538639 1.295964 35.793808 -1.558171 1.910862 36.322472 7.461469 35.623512 
